# xmcd CD database file
#
# Track frame offsets:
#	150
#	24494
#	42867
#
# Disc length: 828 seconds
#
# Revision: 0
# Processed by: cddbd v1.5.1PL0 Copyright (c) Steve Scherf et al.
# Submitted via: CDex 1.40Beta9
#
DISCID=1a033a03
DTITLE=ザ・マスミサイル - 教科書(Maxi)
DYEAR=2005
DGENRE=J-Pop
TTITLE0=教科書
TTITLE1=重力に身を委ねます
TTITLE2=ミサイル行進曲
EXTD=YEAR: 2005/04/06
EXTT0=
EXTT1=
EXTT2=
PLAYORDER=
